<mxfile host="app.diagrams.net" modified="2024-04-26T11:21:53.044Z" agent="Mozilla/5.0 (Windows NT 10.0; Win64; x64) AppleWebKit/537.36 (KHTML, like Gecko) Chrome/124.0.0.0 Safari/537.36" etag="-BKRI2rYk7DUdnqsVkLi" version="24.3.0" type="device">
  <diagram name="Page-1" id="dI_NqbRok86da8Sb8FbG">
    <mxGraphModel dx="1313" dy="705" grid="1" gridSize="10" guides="1" tooltips="1" connect="1" arrows="1" fold="1" page="1" pageScale="1" pageWidth="850" pageHeight="1100" math="0" shadow="0">
      <root>
        <mxCell id="0" />
        <mxCell id="1" parent="0" />
        <mxCell id="UqBvaI-18oXfXnU94Wwj-2" value="" style="rounded=0;whiteSpace=wrap;html=1;" parent="1" vertex="1">
          <mxGeometry x="240" y="430" width="170" height="240" as="geometry" />
        </mxCell>
        <mxCell id="UqBvaI-18oXfXnU94Wwj-3" value="User FrontEnd" style="rounded=0;whiteSpace=wrap;html=1;" parent="1" vertex="1">
          <mxGeometry x="478" y="196" width="90" height="45" as="geometry" />
        </mxCell>
        <mxCell id="UqBvaI-18oXfXnU94Wwj-5" value="Database" style="shape=cylinder3;whiteSpace=wrap;html=1;boundedLbl=1;backgroundOutline=1;size=15;" parent="1" vertex="1">
          <mxGeometry x="265" y="730" width="120" height="80" as="geometry" />
        </mxCell>
        <mxCell id="UqBvaI-18oXfXnU94Wwj-11" value="" style="endArrow=none;html=1;rounded=0;entryX=0.5;entryY=1;entryDx=0;entryDy=0;exitX=0.5;exitY=0;exitDx=0;exitDy=0;exitPerimeter=0;" parent="1" source="UqBvaI-18oXfXnU94Wwj-5" target="UqBvaI-18oXfXnU94Wwj-2" edge="1">
          <mxGeometry width="50" height="50" relative="1" as="geometry">
            <mxPoint x="310" y="640" as="sourcePoint" />
            <mxPoint x="350" y="670" as="targetPoint" />
          </mxGeometry>
        </mxCell>
        <mxCell id="UqBvaI-18oXfXnU94Wwj-12" value="Rest API" style="rounded=0;whiteSpace=wrap;html=1;" parent="1" vertex="1">
          <mxGeometry x="328" y="480" width="80" height="40" as="geometry" />
        </mxCell>
        <mxCell id="UqBvaI-18oXfXnU94Wwj-13" value="&lt;span style=&quot;text-wrap: wrap;&quot;&gt;Backend&lt;/span&gt;" style="text;html=1;align=center;verticalAlign=middle;resizable=0;points=[];autosize=1;strokeColor=none;fillColor=none;" parent="1" vertex="1">
          <mxGeometry x="170" y="440" width="70" height="30" as="geometry" />
        </mxCell>
        <mxCell id="UqBvaI-18oXfXnU94Wwj-14" value="Service Layer" style="rounded=0;whiteSpace=wrap;html=1;" parent="1" vertex="1">
          <mxGeometry x="290" y="535" width="80" height="40" as="geometry" />
        </mxCell>
        <mxCell id="UqBvaI-18oXfXnU94Wwj-15" value="Persistence Layer" style="rounded=0;whiteSpace=wrap;html=1;" parent="1" vertex="1">
          <mxGeometry x="290" y="580" width="80" height="40" as="geometry" />
        </mxCell>
        <mxCell id="UqBvaI-18oXfXnU94Wwj-16" style="edgeStyle=orthogonalEdgeStyle;rounded=0;orthogonalLoop=1;jettySize=auto;html=1;exitX=0.5;exitY=1;exitDx=0;exitDy=0;" parent="1" edge="1">
          <mxGeometry relative="1" as="geometry">
            <mxPoint x="350" y="670" as="sourcePoint" />
            <mxPoint x="350" y="670" as="targetPoint" />
          </mxGeometry>
        </mxCell>
        <mxCell id="UqBvaI-18oXfXnU94Wwj-17" value="Digital Signage" style="rounded=0;whiteSpace=wrap;html=1;" parent="1" vertex="1">
          <mxGeometry x="209" y="243" width="120" height="40" as="geometry" />
        </mxCell>
        <mxCell id="UqBvaI-18oXfXnU94Wwj-42" style="edgeStyle=orthogonalEdgeStyle;rounded=0;orthogonalLoop=1;jettySize=auto;html=1;exitX=0.5;exitY=0;exitDx=0;exitDy=0;exitPerimeter=0;entryX=1;entryY=0.5;entryDx=0;entryDy=0;" parent="1" source="UqBvaI-18oXfXnU94Wwj-25" target="UqBvaI-18oXfXnU94Wwj-17" edge="1">
          <mxGeometry relative="1" as="geometry" />
        </mxCell>
        <mxCell id="UqBvaI-18oXfXnU94Wwj-25" value="" style="shape=cylinder3;whiteSpace=wrap;html=1;boundedLbl=1;backgroundOutline=1;size=15;rotation=90;" parent="1" vertex="1">
          <mxGeometry x="244" y="263" width="40" height="120" as="geometry" />
        </mxCell>
        <mxCell id="UqBvaI-18oXfXnU94Wwj-27" value="Signage Queue" style="text;html=1;align=center;verticalAlign=middle;resizable=0;points=[];autosize=1;strokeColor=none;fillColor=none;" parent="1" vertex="1">
          <mxGeometry x="199" y="339" width="110" height="30" as="geometry" />
        </mxCell>
        <mxCell id="UqBvaI-18oXfXnU94Wwj-36" style="edgeStyle=orthogonalEdgeStyle;rounded=0;orthogonalLoop=1;jettySize=auto;html=1;entryX=0.5;entryY=1;entryDx=0;entryDy=0;entryPerimeter=0;exitX=0.141;exitY=0;exitDx=0;exitDy=0;exitPerimeter=0;" parent="1" source="UqBvaI-18oXfXnU94Wwj-2" target="UqBvaI-18oXfXnU94Wwj-25" edge="1">
          <mxGeometry relative="1" as="geometry">
            <mxPoint x="250" y="420" as="sourcePoint" />
          </mxGeometry>
        </mxCell>
        <mxCell id="4f9U1TBDE4KOdcuTcFRx-15" style="edgeStyle=orthogonalEdgeStyle;rounded=0;orthogonalLoop=1;jettySize=auto;html=1;entryX=0.5;entryY=0;entryDx=0;entryDy=0;" edge="1" parent="1" target="4f9U1TBDE4KOdcuTcFRx-9">
          <mxGeometry relative="1" as="geometry">
            <mxPoint x="430" y="240" as="sourcePoint" />
            <Array as="points">
              <mxPoint x="430" y="400" />
              <mxPoint x="285" y="400" />
            </Array>
          </mxGeometry>
        </mxCell>
        <mxCell id="4f9U1TBDE4KOdcuTcFRx-21" style="edgeStyle=orthogonalEdgeStyle;rounded=0;orthogonalLoop=1;jettySize=auto;html=1;entryX=0.5;entryY=0;entryDx=0;entryDy=0;" edge="1" parent="1" source="UqBvaI-18oXfXnU94Wwj-43" target="4f9U1TBDE4KOdcuTcFRx-19">
          <mxGeometry relative="1" as="geometry" />
        </mxCell>
        <mxCell id="UqBvaI-18oXfXnU94Wwj-43" value="Admin" style="shape=umlActor;verticalLabelPosition=bottom;verticalAlign=top;html=1;outlineConnect=0;" parent="1" vertex="1">
          <mxGeometry x="415" y="30" width="30" height="60" as="geometry" />
        </mxCell>
        <mxCell id="4f9U1TBDE4KOdcuTcFRx-16" style="edgeStyle=orthogonalEdgeStyle;rounded=0;orthogonalLoop=1;jettySize=auto;html=1;entryX=0.5;entryY=0;entryDx=0;entryDy=0;" edge="1" parent="1" target="UqBvaI-18oXfXnU94Wwj-12">
          <mxGeometry relative="1" as="geometry">
            <mxPoint x="525" y="240" as="sourcePoint" />
            <Array as="points">
              <mxPoint x="525" y="420" />
              <mxPoint x="368" y="420" />
            </Array>
          </mxGeometry>
        </mxCell>
        <mxCell id="4f9U1TBDE4KOdcuTcFRx-18" style="edgeStyle=orthogonalEdgeStyle;rounded=0;orthogonalLoop=1;jettySize=auto;html=1;" edge="1" parent="1" source="UqBvaI-18oXfXnU94Wwj-44" target="UqBvaI-18oXfXnU94Wwj-3">
          <mxGeometry relative="1" as="geometry" />
        </mxCell>
        <mxCell id="UqBvaI-18oXfXnU94Wwj-44" value="User" style="shape=umlActor;verticalLabelPosition=bottom;verticalAlign=top;html=1;outlineConnect=0;" parent="1" vertex="1">
          <mxGeometry x="508" y="30" width="30" height="60" as="geometry" />
        </mxCell>
        <mxCell id="4f9U1TBDE4KOdcuTcFRx-9" value="Admin API" style="rounded=0;whiteSpace=wrap;html=1;" vertex="1" parent="1">
          <mxGeometry x="245" y="480" width="80" height="40" as="geometry" />
        </mxCell>
        <mxCell id="4f9U1TBDE4KOdcuTcFRx-19" value="Admin FrontEnd" style="rounded=0;whiteSpace=wrap;html=1;" vertex="1" parent="1">
          <mxGeometry x="385" y="196" width="90" height="45" as="geometry" />
        </mxCell>
        <mxCell id="4f9U1TBDE4KOdcuTcFRx-23" style="edgeStyle=orthogonalEdgeStyle;rounded=0;orthogonalLoop=1;jettySize=auto;html=1;entryX=1.006;entryY=0.319;entryDx=0;entryDy=0;entryPerimeter=0;" edge="1" parent="1">
          <mxGeometry relative="1" as="geometry">
            <mxPoint x="537" y="70" as="sourcePoint" />
            <mxPoint x="410" y="501.55999999999995" as="targetPoint" />
            <Array as="points">
              <mxPoint x="537" y="70" />
              <mxPoint x="640" y="70" />
              <mxPoint x="640" y="502" />
            </Array>
          </mxGeometry>
        </mxCell>
        <mxCell id="4f9U1TBDE4KOdcuTcFRx-24" value="Reverse Proxy" style="rounded=0;whiteSpace=wrap;html=1;" vertex="1" parent="1">
          <mxGeometry x="500" y="130" width="160" height="27.5" as="geometry" />
        </mxCell>
      </root>
    </mxGraphModel>
  </diagram>
</mxfile>
